#!OML:ASF H:\GeneralSubjects\Female5\Project 1\Capture day 1\Session 1\Female5.ASF
:FULLY-SPECIFIED
:DEGREES
1056
root 6.86182 16.5655 -0.192703 178.349 -82.7618 -168.875
lowerback 14.4486 1.66659 1.12194
upperback -9.62806 2.57713 1.28643
thorax -19.4841 1.03529 0.11815
lowerneck -19.1479 -1.01492 -1.52584
upperneck 31.6956 -0.953313 -2.08756
head 14.0167 -1.16705 -0.81016
rclavicle -1.0138e-014 2.94201e-014
rhumerus 11.8936 17.8584 -2.8412
rradius 37.3301
rwrist -4.62694
rhand -34.327 -10.5863
rfingers 7.12502
rthumb -7.49518 -40.4336
lclavicle -1.0138e-014 2.94201e-014
lhumerus 12.6552 -6.61398 14.1531
lradius 29.1922
lwrist -3.39864
lhand -39.8902 28.0839
lfingers 7.12502
lthumb -12.8619 -302.332
rfemur -9.92868 16.6883 21.401
rtibia 4.93959
rfoot 324.548 -23.5493
rtoes -6.66559
lfemur -11.789 -12.0141 -17.0811
ltibia 8.93549
lfoot -36.7643 -19.186
ltoes -31.3371
1057
root 6.77515 16.6731 -0.204767 178.964 -83.3724 -169.533
lowerback 13.1925 1.5594 1.03176
upperback -9.97055 2.3453 1.2211
thorax -19.0796 0.933102 0.195881
lowerneck -18.7722 -0.938149 -1.53678
upperneck 32.5245 -0.896995 -2.13005
head 14.3014 -1.18444 -0.833684
rclavicle 2.71838e-014 2.90226e-014
rhumerus 10.632 18.7423 -1.476
rradius 36.8749
rwrist -5.16291
rhand -33.6556 -10.7558
rfingers 7.12502
rthumb -6.84711 -40.625
lclavicle 2.71838e-014 2.90226e-014
lhumerus 11.339 -7.19716 12.6168
lradius 29.1238
lwrist -2.96832
lhand -39.0563 26.7698
lfingers 7.12502
lthumb -12.058 -303.598
rfemur -7.51567 21.8223 21.7286
rtibia 2.07608
rfoot 321.945 -24.5971
rtoes -5.7257
lfemur -9.37799 -17.8604 -17.7639
ltibia 5.44516
lfoot -40.2909 -18.2246
ltoes -32.6079
1058
root 6.69151 16.7528 -0.217912 177.071 -83.9515 -167.694
lowerback 12.0266 1.43848 1.20976
upperback -10.2935 2.16383 1.22386
thorax -18.7018 0.821936 0.180547
lowerneck -18.417 -0.921973 -1.71824
upperneck 33.3632 -0.940668 -1.98574
head 14.6032 -1.24131 -0.770221
rclavicle -6.5102e-015 1.03368e-014
rhumerus 9.51662 19.8972 0.112657
rradius 36.3229
rwrist -6.02328
rhand -33.0137 -11.5709
rfingers 7.12502
rthumb -6.2274 -41.4594
lclavicle -6.5102e-015 1.03368e-014
lhumerus 10.6328 -7.36053 11.4471
lradius 28.5066
lwrist -3.1034
lhand -37.7988 26.8304
lfingers 7.12502
lthumb -10.8452 -303.47
rfemur -5.20768 27.7466 22.6262
rtibia -0.170821
rfoot 318.633 -26.4096
rtoes -6.13296
lfemur -7.19738 -23.8448 -18.2657
ltibia 2.71825
lfoot -44.726 -14.5395
ltoes -36.7375
1059
root 6.60741 16.8057 -0.229276 174.389 -84.4267 -165.07
lowerback 10.9523 1.36102 1.46207
upperback -10.6376 2.05216 1.22335
thorax -18.4114 0.728912 0.0951872
lowerneck -17.9967 -0.898865 -1.69817
upperneck 34.099 -0.959433 -2.08799
head 14.8461 -1.29632 -0.836412
rclavicle -1.04362e-015 7.15625e-015
rhumerus 8.3891 21.0768 1.69308
rradius 35.6214
rwrist -6.72561
rhand -32.2278 -12.207
rfingers 7.12502
rthumb -5.4687 -42.1164
lclavicle -1.04362e-015 7.15625e-015
lhumerus 9.42533 -8.61394 9.61721
lradius 28.6235
lwrist -1.92071
lhand -36.5047 27.1416
lfingers 7.12502
lthumb -9.59682 -303.097
rfemur -3.09383 33.2422 23.7818
rtibia -1.80965
rfoot 316.093 -27.679
rtoes -6.25836
lfemur -5.10499 -29.8202 -18.8928
ltibia 0.717377
lfoot -48.9004 -9.38183
ltoes -42.0449
1060
root 6.52065 16.8348 -0.238085 172.861 -84.8801 -163.626
lowerback 9.87367 1.30807 1.57313
upperback -10.9384 1.93726 1.186
thorax -18.0655 0.650177 0.0443849
lowerneck -17.865 -0.921226 -1.71256
upperneck 35.0094 -1.04438 -2.15113
head 15.2446 -1.38172 -0.902157
rclavicle -2.28602e-015 -3.57812e-015
rhumerus 7.31229 22.2017 3.29501
rradius 34.7524
rwrist -7.37206
rhand -31.2956 -12.5905
rfingers 7.12502
rthumb -4.56857 -42.5212
lclavicle -2.28602e-015 -3.57812e-015
lhumerus 8.26248 -10.0383 7.73733
lradius 28.7754
lwrist -0.187655
lhand -35.5214 26.7976
lfingers 7.12502
lthumb -8.64792 -303.4
rfemur -1.15084 37.3388 24.8675
rtibia -3.08955
rfoot 315.388 -29.0775
rtoes -8.20883
lfemur -2.99927 -35.3694 -19.9139
ltibia -0.902104
lfoot -51.5798 -6.9448
ltoes -44.3753
1061
root 6.43343 16.8417 -0.248159 171.065 -85.2617 -161.933
lowerback 8.75309 1.29498 1.6753
upperback -11.1717 1.87139 1.13203
thorax -17.6041 0.595603 -0.0345475
lowerneck -17.3968 -0.896038 -1.61476
upperneck 35.5057 -1.12211 -2.13107
head 15.3715 -1.42543 -0.936081
rclavicle -4.07509e-015 1.11319e-014
rhumerus 6.26577 23.5381 4.96771
rradius 33.8362
rwrist -8.70756
rhand -30.7207 -13.7116
rfingers 7.12502
rthumb -4.01344 -43.6536
lclavicle -4.07509e-015 1.11319e-014
lhumerus 7.38571 -10.916 6.14456
lradius 28.6808
lwrist 1.17904
lhand -34.71 27.7266
lfingers 7.12502
lthumb -7.86485 -302.44
rfemur 0.488129 40.027 25.8758
rtibia -3.95579
rfoot 315.221 -29.9761
rtoes -10.0465
lfemur -1.01039 -39.7 -20.9707
ltibia -2.25591
lfoot -52.9223 -7.02581
ltoes -44.0863
1062
root 6.34846 16.8279 -0.258677 169.197 -85.659 -160.209
lowerback 7.73697 1.28506 1.73366
upperback -11.3734 1.80397 1.06194
thorax -17.1756 0.545231 -0.110346
lowerneck -16.8924 -0.866608 -1.61561
upperneck 35.8374 -1.21783 -1.92377
head 15.4135 -1.45699 -0.870695
rclavicle -7.25564e-015 6.75868e-015
rhumerus 5.29315 25.142 6.62305
rradius 32.8449
rwrist -10.8364
rhand -30.4955 -15.5753
rfingers 7.12502
rthumb -3.79596 -45.5212
lclavicle -7.25564e-015 6.75868e-015
lhumerus 6.51034 -11.554 4.67574
lradius 28.4236
lwrist 2.43108
lhand -34.2655 29.1587
lfingers 7.12502
lthumb -7.4358 -300.992
rfemur 1.81822 41.0528 26.6056
rtibia -4.56695
rfoot 314.443 -29.3894
rtoes -8.68665
lfemur 0.799882 -42.7505 -22.0006
ltibia -3.25429
lfoot -53.693 -7.10851
ltoes -43.1599
1063
root 6.27105 16.7943 -0.268442 167.954 -86.1151 -159.187
lowerback 6.96324 1.25638 1.71659
upperback -11.5647 1.70324 0.94719
thorax -16.8991 0.484563 -0.193185
lowerneck -16.5489 -0.878496 -1.61338
upperneck 36.3004 -1.36196 -1.7651
head 15.5585 -1.51883 -0.84074
rclavicle 1.01877e-014 -9.93923e-016
rhumerus 4.3618 27.09 8.24418
rradius 31.8
rwrist -13.6142
rhand -30.1174 -17.6263
rfingers 7.12502
rthumb -3.43087 -47.5784
lclavicle 1.01877e-014 -9.93923e-016
lhumerus 5.67244 -12.2425 3.31091
lradius 28.215
lwrist 3.76304
lhand -33.2061 31.137
lfingers 7.12502
lthumb -6.41318 -298.98
rfemur 2.98687 40.559 26.9967
rtibia -5.26336
rfoot 313.877 -28.5589
rtoes -7.44431
lfemur 2.33262 -44.4129 -22.9741
ltibia -3.97143
lfoot -54.0094 -7.49251
ltoes -42.5072
1064
root 6.20619 16.7472 -0.279591 167.241 -86.4587 -158.749
lowerback 6.37723 1.22192 1.57971
upperback -11.7071 1.59606 0.896279
thorax -16.6927 0.442763 -0.14043
lowerneck -16.0589 -0.873964 -1.7572
upperneck 36.6425 -1.43991 -1.59519
head 15.6132 -1.57092 -0.762941
rclavicle 9.93923e-017 -2.18663e-015
rhumerus 3.45558 29.3835 9.9632
rradius 31.0006
rwrist -17.0699
rhand -29.6658 -19.5655
rfingers 7.12502
rthumb -2.99468 -49.5242
lclavicle 9.93923e-017 -2.18663e-015
lhumerus 4.76602 -12.8864 2.19519
lradius 27.9829
lwrist 5.01817
lhand -32.2366 31.5793
lfingers 7.12502
lthumb -5.47722 -298.511
rfemur 3.87305 38.9521 27.1009
rtibia -6.03404
rfoot 314.933 -28.2262
rtoes -8.75766
lfemur 3.40669 -44.451 -23.6004
ltibia -4.58625
lfoot -53.323 -9.57101
ltoes -41.1343
1065
root 6.15342 16.6961 -0.292684 164.866 -86.6593 -156.733
lowerback 6.07321 1.18113 1.43734
upperback -11.7674 1.51488 0.984814
thorax -16.5749 0.428518 0.0612299
lowerneck -15.6935 -0.829237 -2.05324
upperneck 36.8612 -1.3871 -1.42103
head 15.6395 -1.58237 -0.630393
rclavicle -7.70291e-015 -2.78299e-015
rhumerus 2.48688 31.6829 11.5666
rradius 30.443
rwrist -20.6738
rhand -29.5341 -21.6525
rfingers 7.12502
rthumb -2.86756 -51.613
lclavicle -7.70291e-015 -2.78299e-015
lhumerus 3.56036 -13.2674 1.42344
lradius 27.5509
lwrist 5.85276
lhand -32.4306 32.556
lfingers 7.12502
lthumb -5.66444 -297.54
rfemur 4.76607 38.3536 27.4303
rtibia -6.56902
rfoot 315.669 -28.8378
rtoes -10.5338
lfemur 4.31822 -43.7124 -23.9244
ltibia -5.1938
lfoot -51.9232 -11.2194
ltoes -39.5938
1066
root 6.11087 16.6464 -0.306072 162.292 -86.8311 -154.603
lowerback 6.10387 1.15381 1.31168
upperback -11.7716 1.4694 1.05151
thorax -16.6067 0.429211 0.215438
lowerneck -15.5443 -0.771241 -1.89088
upperneck 37.0114 -1.3152 -1.58125
head 15.675 -1.56135 -0.718308
rclavicle -2.48481e-016 -7.95139e-015
rhumerus 1.38664 33.6486 12.5579
rradius 29.6993
rwrist -23.6098
rhand -29.5191 -23.7196
rfingers 7.12502
rthumb -2.85302 -53.6802
lclavicle -2.48481e-016 -7.95139e-015
lhumerus 2.10783 -13.7682 0.71185
lradius 27.2637
lwrist 6.34739
lhand -32.4008 34.2379
lfingers 7.12502
lthumb -5.63567 -295.857
rfemur 5.86528 37.7918 27.9616
rtibia -7.15926
rfoot 316.02 -29.1601
rtoes -11.849
lfemur 5.38297 -43.4925 -24.4175
ltibia -5.65298
lfoot -50.9136 -10.4324
ltoes -38.8014
1067
root 6.07538 16.6064 -0.318642 160.683 -87.0234 -153.431
lowerback 6.3831 1.14694 1.10192
upperback -11.8156 1.44332 1.0929
thorax -16.8564 0.446195 0.381566
lowerneck -15.5246 -0.795409 -1.86313
upperneck 37.2532 -1.36457 -1.63341
head 15.7907 -1.59623 -0.762025
rclavicle -6.60959e-015 -2.04748e-014
rhumerus 0.156157 35.7827 13.1487
rradius 28.9305
rwrist -26.2881
rhand -29.4577 -25.9369
rfingers 7.12502
rthumb -2.79376 -55.8983
lclavicle -6.60959e-015 -2.04748e-014
lhumerus 1.01196 -13.9856 0.591811
lradius 26.5807
lwrist 6.21999
lhand -32.3916 30.9126
lfingers 7.12502
lthumb -5.62679 -299.182
rfemur 6.87734 37.2516 28.4828
rtibia -7.53143
rfoot 316.109 -29.3709
rtoes -13.0896
lfemur 6.45312 -44.0251 -25.1465
ltibia -5.83441
lfoot -50.3568 -8.92421
ltoes -37.6834
